<svg width="573" height="266" viewBox="0 0 573 266" fill="none" xmlns="http://www.w3.org/2000/svg">
<g clip-path="url(#clip0)">
<path d="M559.791 263.925C556.353 264.707 552.885 264.046 549.447 264.136C546.099 264.226 542.721 264.256 539.344 264.106C537.293 264.016 535.242 264.226 533.192 264.256C532.106 264.286 531.02 264.316 529.934 264.226C526.346 263.925 522.757 264.767 519.198 264.016C518.474 263.865 517.811 264.256 517.117 264.286C514.735 264.316 512.322 264.106 509.94 264.376C506.532 264.737 503.124 264.406 499.746 264.437C496.158 264.467 492.539 264.587 488.95 264.737C485.271 264.918 481.561 264.617 477.912 265.128C476.103 265.399 474.233 265.038 472.393 265.248C470.011 265.519 467.628 265.339 465.216 265.639C463.255 265.91 461.114 265.669 459.063 265.79C455.354 266 451.645 265.759 447.935 265.91C445.915 266 443.804 266.06 441.783 265.729C439.4 265.339 437.048 265.82 434.696 265.579C430.896 265.218 427.066 265.85 423.236 265.549C420.401 265.339 417.536 265.579 414.701 265.579C410.6 265.579 406.528 265.429 402.427 265.519C395.822 265.639 389.218 265.639 382.643 265.519C378.451 265.429 374.259 265.79 370.068 265.399C368.137 265.218 366.117 265.369 364.217 264.827C361.774 264.136 359.603 262.723 357.431 261.49C354.446 259.806 351.43 258.243 348.324 256.83C345.338 255.447 342.232 254.695 338.914 254.274C333.848 253.613 328.781 252.981 323.745 252.079C321.393 251.658 318.92 251.418 316.507 251.207C314.818 251.057 313.099 250.756 311.41 250.425C308.847 249.914 306.223 249.554 303.69 248.892C301.519 248.291 299.317 247.719 297.116 247.118C294.824 246.487 292.592 245.795 290.36 245.044C286.983 243.901 283.514 242.939 280.68 240.534C279.745 239.752 279.051 238.79 278.749 237.737C278.448 236.595 278.146 235.122 279.865 234.49C281.494 233.889 282.519 232.385 284.057 231.604C287.284 230.01 290.511 228.357 293.979 227.575C296.844 226.913 299.8 226.402 302.785 226.282C304.534 226.222 306.284 225.831 308.093 225.861C310.506 225.891 312.918 225.951 315.301 225.741C319.312 225.38 323.293 226.041 327.304 225.651C328.781 225.53 330.44 225.56 332.008 225.651C333.546 225.741 335.145 225.681 336.713 225.62C337.98 225.59 339.276 225.47 340.543 225.53C343.348 225.62 346.062 225.019 348.836 224.929C350.797 224.869 352.757 225.109 354.747 225.049C356.044 225.019 357.371 225.38 358.638 224.718C359.301 224.358 359.965 224.929 360.688 224.899C363.644 224.749 366.63 224.658 369.585 224.598C372.691 224.538 375.828 224.688 378.934 224.538C383.066 224.328 387.197 224.478 391.329 224.207C393.289 224.087 395.4 224.177 397.391 224.207C400.557 224.207 403.724 224.598 406.89 224.147C407.946 223.997 409.062 224.298 410.177 224.237C412.801 224.147 415.425 224.388 418.049 223.997C418.893 223.877 419.828 224.147 420.703 224.298C424.322 224.869 427.971 224.207 431.59 224.328C434.455 224.448 437.41 224.328 440.275 224.418C443.924 224.538 447.634 224.448 451.313 224.749C453.695 224.929 456.168 225.049 458.611 225.019C460.903 224.989 463.436 224.658 465.668 225.951C466.573 225.049 467.628 225.741 468.593 225.711C470.885 225.62 473.207 225.741 475.499 225.711C480.234 225.62 484.969 225.38 489.674 225.26C494.107 225.139 498.54 224.749 502.973 224.809C504.149 224.809 505.356 224.658 506.532 224.538C509.367 224.207 512.171 224.448 515.006 224.267C517.751 224.087 520.525 224.207 523.27 223.756C524.536 223.546 525.893 223.666 527.22 223.726C530.025 223.877 532.739 222.884 535.484 223.065C538.499 223.305 541.364 222.313 544.35 222.193C545.707 222.133 547.155 221.682 548.542 221.411C550.17 221.11 551.769 221.321 553.367 221.712C554.483 221.982 555.659 221.802 556.745 222.343C559.097 223.546 561.088 225.169 563.108 226.853C565.521 228.838 566.908 231.453 568.687 233.829C569.833 235.392 570.436 237.407 571.07 239.271C571.311 239.992 571.492 240.654 571.975 241.255C572.879 242.458 572.276 243.961 572.668 245.284C573.513 248.381 572.789 251.508 572.276 254.545C571.794 257.401 570.044 259.716 567.571 261.55C565.159 263.354 562.505 263.685 559.791 263.925ZM432.796 235.633C432.585 234.701 432.856 233.829 432.344 233.077C430.866 230.912 429.026 229.078 426.734 227.906C425.317 227.184 423.507 227.304 421.999 227.785C421.065 228.086 420.19 228.567 419.165 228.537C417.415 228.447 415.666 228.417 413.917 228.357C409.303 228.176 404.689 228.206 400.044 228.176C395.822 228.146 391.661 228.717 387.469 228.627C386.443 228.597 385.388 228.357 384.393 228.597C382.01 229.138 379.567 228.988 377.155 229.078C374.742 229.168 372.329 229.469 369.947 229.74C367.504 230.01 365.122 230.852 362.769 231.664C359.633 232.776 356.949 234.46 354.747 236.865C353.752 237.948 353.3 239.421 353.963 241.015C354.868 243.089 356.889 243.63 358.668 244.412C360.538 245.224 362.498 245.915 364.488 246.397C365.996 246.757 367.353 247.569 368.891 247.75C370.248 247.9 371.606 248.11 372.963 248.321C374.682 248.561 376.431 249.042 378.15 248.922C379.989 248.772 381.829 249.012 383.578 249.193C387.137 249.554 390.696 249.463 394.164 249.163C397.481 248.862 401.009 249.223 404.176 247.659C404.297 247.599 404.448 247.629 404.598 247.659C408.217 247.96 411.746 247.088 415.304 246.637C417.838 246.336 420.19 245.314 422.633 244.683C425.076 244.051 427.368 242.939 429.267 241.165C429.81 240.654 429.961 239.872 430.715 239.511C432.313 238.699 432.555 237.106 432.796 235.633ZM484.637 245.855C486.628 245.525 488.678 245.374 490.609 244.803C492.328 244.292 494.047 243.781 495.766 243.27C500.289 241.947 502.973 238.88 503.848 234.28C503.908 233.889 503.757 233.558 503.546 233.318C501.677 231.002 498.902 229.92 496.248 229.71C493.775 229.529 491.302 229.168 488.829 229.138C485.15 229.048 481.471 228.898 477.791 228.687C474.685 228.507 471.549 228.838 468.412 228.928C467.417 228.958 466.392 228.627 465.427 228.958C463.587 229.589 461.657 229.289 459.817 229.289C457.254 229.319 455.113 230.07 453.213 231.453C450.378 233.528 450.318 236.895 449.745 239.962C449.654 240.503 449.322 241.135 449.986 241.616C451.705 242.909 453.635 244.051 455.716 244.232C458.943 244.502 462.019 245.555 465.306 245.464C468.141 245.404 470.976 245.795 473.811 245.946C474.957 246.006 476.163 246.246 477.218 245.976C479.691 245.374 482.195 246.637 484.637 245.855Z" fill="#F5C118"/>
<path d="M432.796 235.633C432.525 237.106 432.313 238.699 430.655 239.481C429.901 239.842 429.75 240.624 429.207 241.135C427.307 242.909 425.015 244.021 422.572 244.653C420.13 245.284 417.777 246.306 415.244 246.607C411.685 247.028 408.187 247.93 404.538 247.629C404.387 247.629 404.236 247.599 404.116 247.629C400.949 249.193 397.451 248.832 394.103 249.133C390.635 249.433 387.077 249.523 383.518 249.163C381.769 248.982 379.929 248.772 378.09 248.892C376.401 249.012 374.621 248.531 372.902 248.291C371.545 248.11 370.188 247.9 368.831 247.719C367.323 247.539 365.936 246.757 364.428 246.366C362.438 245.885 360.477 245.194 358.608 244.382C356.828 243.6 354.808 243.059 353.903 240.985C353.209 239.391 353.692 237.918 354.687 236.835C356.889 234.43 359.573 232.716 362.709 231.634C365.061 230.792 367.444 229.98 369.887 229.71C372.269 229.439 374.682 229.138 377.094 229.048C379.507 228.958 381.95 229.108 384.332 228.567C385.327 228.326 386.383 228.597 387.408 228.597C391.6 228.687 395.792 228.116 399.984 228.146C404.598 228.176 409.243 228.146 413.857 228.326C415.606 228.387 417.355 228.417 419.104 228.507C420.13 228.567 421.004 228.056 421.939 227.755C423.447 227.274 425.287 227.154 426.674 227.875C428.966 229.048 430.806 230.882 432.283 233.047C432.856 233.829 432.585 234.701 432.796 235.633Z" fill="#EC9402"/>
<path d="M484.637 245.855C482.195 246.637 479.661 245.374 477.188 246.006C476.133 246.276 474.926 246.036 473.78 245.976C470.946 245.825 468.111 245.434 465.276 245.495C461.989 245.585 458.913 244.532 455.686 244.262C453.635 244.081 451.675 242.939 449.956 241.646C449.322 241.165 449.624 240.503 449.714 239.992C450.287 236.926 450.318 233.558 453.183 231.483C455.113 230.1 457.224 229.349 459.787 229.319C461.627 229.289 463.557 229.619 465.397 228.988C466.362 228.657 467.387 228.988 468.382 228.958C471.519 228.868 474.655 228.537 477.761 228.717C481.441 228.928 485.12 229.078 488.799 229.168C491.302 229.228 493.775 229.559 496.218 229.74C498.872 229.92 501.646 231.002 503.516 233.348C503.727 233.618 503.908 233.919 503.818 234.31C502.943 238.91 500.259 242.007 495.735 243.3C494.016 243.811 492.297 244.322 490.578 244.833C488.709 245.374 486.658 245.525 484.637 245.855Z" fill="#EC9402"/>
<path d="M374.983 93.6277C371.274 94.0787 367.564 94.0486 363.885 93.3871C361.623 92.9963 360.236 91.4328 359.422 89.3281C358.185 86.0509 357.793 82.6232 357.371 79.1956C355.712 66.297 355.381 53.3383 355.863 40.3495C356.165 32.442 356.316 24.5344 358.246 16.7772C358.969 13.8908 359.904 11.0946 361.834 8.7494C365.665 4.1492 368.741 4.11913 373.083 7.3964C375.767 9.41087 377.396 12.2672 378.753 15.2438C382.523 23.452 384.875 32.1413 386.866 40.9508C391.027 59.1712 393.591 77.6322 395.883 96.1833C396.275 99.3704 396.245 99.3704 392.927 99.5207C392.776 99.5207 392.626 99.5207 392.475 99.5508C390.123 99.7613 388.012 99.6711 387.408 96.6644C387.258 95.8526 386.473 95.1611 385.991 94.4094C386.835 93.8682 387.408 94.4695 388.012 94.8905C388.856 95.5219 389.64 96.2435 390.515 96.8147C390.756 96.9651 391.057 97.1755 391.329 96.9651C391.63 96.7546 391.48 96.4239 391.389 96.1232C391.299 95.7323 391.148 95.3415 391.027 94.9807C390.153 92.6355 389.188 90.3203 388.162 88.0353C386.685 84.7881 384.031 83.6155 380.985 86.3515C380.683 86.6221 380.382 86.8627 380.08 87.1333C377.698 89.3883 374.953 91.1321 372.239 92.9361C372.028 93.0865 371.787 93.1466 371.364 93.1767C372.691 93.2969 373.928 92.6956 374.983 93.6277Z" fill="#F9D1C3"/>
<path d="M401.16 216.841C399.562 218.404 398.989 218.435 397.391 216.6C389.369 207.43 381.709 197.959 375.194 187.616C374.953 187.225 374.802 186.684 374.169 186.353C374.259 188.368 374.863 190.142 375.315 191.946C377.094 198.831 380.17 205.145 383.277 211.489C388.102 221.411 391.63 231.844 394.013 242.608C394.918 246.697 394.676 247.299 390.273 247.81C387.348 248.14 384.393 247.84 381.136 247.719C382.342 246.757 383.458 246.306 384.634 245.885C387.167 245.013 387.348 244.683 387.046 242.067C386.745 239.331 385.659 236.715 385.327 234.009C384.785 229.469 382.553 225.771 380.11 222.043C374.863 214.105 368.922 206.648 364.428 198.2C361.925 193.449 359.241 188.759 358.155 183.467C356.919 177.393 357.793 171.591 361.834 166.6C364.126 163.743 366.057 163.232 369.525 164.345C373.807 165.728 377.667 167.862 380.924 170.869C390.092 179.318 398.597 188.368 406.86 197.688C407.584 198.5 407.795 199.132 406.86 199.913C406.589 200.124 406.528 200.635 406.408 200.996C405.684 203.491 405.051 205.987 404.086 208.422C403.935 208.362 403.814 208.242 403.784 208.092C402.608 202.8 399.019 198.921 395.822 194.832C392.294 190.352 387.831 187.015 382.794 184.339C381.407 183.617 380.02 182.986 378.421 182.415C382.704 187.586 386.986 192.577 390.575 198.139C394.073 203.521 397.753 208.753 400.346 214.676C400.738 215.398 401.07 216.089 401.16 216.841Z" fill="#F9D1C3"/>
<path d="M442.688 192.156C443.713 187.947 445.915 184.309 448.599 181.001C450.499 178.656 452.851 176.732 455.113 174.748C455.806 174.146 456.319 174.236 456.922 174.748C456.952 174.778 456.983 174.808 457.043 174.838C459.817 176.942 459.908 177.183 458.129 180.28C456.138 183.707 453.997 187.015 451.253 190.412C455.656 190.202 459.787 190.472 464.07 190.503C463.587 189.57 462.833 188.849 463.255 187.827C463.617 186.985 464.19 186.293 464.854 185.662C466.211 184.309 467.779 183.196 469.498 182.354C470.373 181.934 471.217 181.302 472.303 182.024C472.936 182.445 473.117 181.663 473.419 181.332C475.349 179.348 477.128 177.213 480.053 176.672C481.712 176.341 481.953 176.491 482.225 178.145C482.647 180.641 481.803 182.836 480.355 184.76C475.711 190.923 469.981 195.734 462.562 198.23C462.29 198.32 462.019 198.44 461.536 198.651C468.231 200.004 473.177 203.912 478.003 208.031C480.053 209.775 482.014 211.669 484.064 213.413C484.517 213.804 484.336 213.955 484.095 214.225C482.858 215.548 481.652 216.871 480.204 217.983C479.36 218.615 478.726 218.254 478.093 217.653C475.168 214.857 471.941 212.331 469.377 209.144C468.382 207.941 467.176 207.129 465.457 207.49C464.462 207.701 464.039 208.061 464.039 209.174C464.07 212.06 464.733 214.676 466.392 217.112C467.568 218.855 468.593 220.659 469.317 222.674C470.433 225.861 472.182 228.717 474.052 231.514C474.685 232.476 475.288 233.468 475.801 234.49C476.857 236.625 476.284 238.699 474.293 239.992C471.277 241.947 467.99 241.736 464.703 241.045C463.828 240.864 463.708 240.383 464.432 239.722C465.578 238.669 466.844 237.767 468.171 236.956C469.136 236.384 469.196 235.933 468.533 235.031C464.793 229.95 461.295 224.688 457.948 219.336C456.017 216.24 454.751 212.872 454.389 209.234C454.087 206.107 454.449 203.04 455.656 200.004C454.178 200.154 452.7 200.304 451.253 200.485C450.318 200.575 450.68 201.296 450.74 201.778C451.072 205.325 451.916 208.783 452.791 212.211C454.148 217.593 457.043 222.103 460.722 226.162C461.386 226.913 462.049 227.695 462.622 228.477C463.497 229.679 463.316 231.093 462.26 232.145C460.36 234.009 456.017 234.701 453.424 233.468C454.298 232.566 455.445 232.416 456.53 232.085C458.34 231.514 458.641 231.093 457.797 229.289C456.862 227.274 455.505 225.53 454.148 223.816C452.006 221.141 449.624 218.735 447.362 216.149C446.246 214.857 445.191 213.504 444.135 212.181C441.3 208.603 441.029 204.754 442.899 200.665C440.185 199.492 439.34 198.47 439.732 196.516C440.034 194.892 440.939 193.569 442.386 192.667C442.869 193.058 442.597 193.569 442.597 194.05C442.537 195.794 443.562 196.486 445.221 195.854C446.246 195.464 447.03 194.772 447.724 193.99C448.538 193.058 449.353 192.156 450.167 191.014C448.086 190.954 446.216 191.284 444.437 191.916C443.834 192.096 443.321 192.577 442.688 192.156Z" fill="#F9D1C3"/>
<path d="M370.188 122.792C371.063 126.611 368.71 128.685 366.207 130.64C361.623 134.218 356.677 137.345 352.184 141.013C348.354 144.11 344.644 147.357 341.689 151.326C341.387 151.717 341.116 152.137 340.724 152.679C343.529 152.949 346.122 152.528 348.746 152.408C354.054 152.137 359.392 151.897 364.699 151.536C375.556 150.754 386.262 149.161 396.184 144.35C397.873 143.538 399.441 142.576 400.979 141.554C405.654 138.457 407.313 133.737 407.976 128.505C408.247 126.46 408.639 124.446 408.911 122.432C409.062 121.229 409.635 120.958 410.751 121.289C413.404 122.071 416.42 126.671 415.968 129.557C414.762 137.284 411.293 143.929 405.744 149.371C402.065 152.979 397.149 154.272 392.234 155.535C385.961 157.159 379.537 157.339 373.174 158.211C368.469 158.842 363.825 160.015 359 160.075C351.762 160.165 344.554 160.165 337.376 159.023C336.472 158.872 336.381 159.474 336.11 159.955C333.184 164.946 331.224 170.358 329.565 175.86C328.721 178.746 328.027 181.663 326.55 184.309C326.097 185.091 325.766 186.293 324.62 186.113C323.564 185.932 323.594 184.73 323.413 183.888C322.539 179.438 323.323 175.078 324.318 170.809C326.55 161.428 331.616 153.581 337.919 146.395C343.619 139.93 350.284 134.699 357.763 130.459C360.598 128.866 363.523 127.423 365.996 125.228C367.233 124.145 368.68 123.394 370.188 122.792Z" fill="#F9D1C3"/>
<path d="M417.717 134.518C418.471 136.022 419.346 137.495 419.949 139.058C422.482 145.884 424.261 152.859 424.955 160.135C425.709 167.922 426.161 175.71 425.739 183.497C425.196 193.419 424.533 203.341 421.215 212.842C419.557 217.623 417.385 222.193 413.796 225.921C413.706 226.041 413.585 226.132 413.465 226.252C412.59 227.004 411.625 228.176 410.509 227.455C409.725 226.943 410.389 225.59 410.6 224.688C411.324 221.261 412.168 217.893 412.982 214.496C413.646 211.669 414.068 208.813 414.068 205.897C414.068 201.327 414.249 196.756 413.977 192.216C413.646 186.804 412.681 181.422 411.595 176.101C410.539 170.899 408.519 166.088 406.528 161.218C406.106 160.165 405.774 159.053 405.473 157.94C404.99 156.106 405.382 154.483 406.83 153.16C410.811 149.552 413.646 145.192 415.757 140.291C416.541 138.457 416.842 136.503 417.265 134.548C417.415 134.548 417.566 134.518 417.717 134.518Z" fill="#C0C0C0"/>
<path d="M360.085 240.954C361.955 240.233 363.795 239.481 365.665 238.76C366.75 238.339 367.052 237.617 367.142 236.444C367.323 233.558 366.298 231.273 364.549 229.048C356.285 218.525 348.052 207.971 342.714 195.554C340.513 190.442 338.221 185.361 337.618 179.769C337.135 175.409 337.346 171.079 339.276 166.99C340.241 164.976 341.689 163.924 344.041 164.104C346.786 164.284 349.56 164.194 352.154 165.367C352.636 165.577 353.028 165.307 353.42 165.096C354.506 164.555 355.592 164.044 356.647 163.503C356.919 163.382 357.19 163.202 357.492 163.443C357.793 163.683 357.643 163.984 357.552 164.254C355.954 168.764 354.868 173.365 354.958 178.205C354.958 178.837 354.717 178.927 354.144 178.897C351.52 178.746 351.913 179.167 351.822 181.332C351.49 188.909 354.687 195.433 357.914 201.958C360.508 207.22 364.187 211.85 367.082 216.931C369.525 221.231 371.847 225.62 374.109 230.01C375.225 232.175 375.828 234.49 375.164 236.986C374.953 237.767 374.561 238.399 373.807 238.669C369.404 240.203 364.911 241.285 360.085 240.954Z" fill="#F9D1C3"/>
<path d="M453.213 150.213C453.334 140.953 455.173 132.414 459.063 124.356C460.209 122.011 461.627 119.816 463.648 118.102C466.543 115.636 469.317 115.576 471.67 118.493C477.007 125.168 480.596 132.594 479.872 141.494C479.661 143.929 479.36 146.365 479.058 148.8C478.304 155.054 475.138 160.165 471.639 165.156C471.006 166.058 470.343 166.389 469.257 166.028C468.02 165.637 466.784 165.277 465.427 165.337C464.613 165.367 464.16 164.886 464.13 164.014C464.1 162.931 464.311 161.578 463.587 160.827C462.894 160.105 461.597 160.586 460.541 160.466C455.746 159.895 452.941 156.647 453.122 151.837C453.153 151.175 453.213 150.544 453.213 150.213Z" fill="#F9D1C3"/>
<path d="M409.846 113.111C409.966 117.35 408.67 121.018 407.373 124.717C406.287 127.844 405.201 130.94 404.055 134.037C403.603 135.27 402.879 136.322 402.005 137.315C401.251 138.156 400.678 138.006 400.075 137.194C399.049 135.841 398.295 134.368 398.114 132.714C397.722 129.046 397.33 125.378 397.089 121.68C396.787 116.899 396.154 112.149 395.732 107.398C395.581 105.865 395.46 104.331 395.099 102.798C395.008 102.437 395.068 102.137 395.31 101.806C396.486 100.122 399.23 99.4606 401.16 100.272C405.744 102.197 408.73 105.384 409.665 110.345C409.846 111.367 409.785 112.359 409.846 113.111Z" fill="#C0C0C0"/>
<path d="M401.16 216.841C400.256 215.067 399.381 213.293 398.446 211.549C394.254 203.672 389.248 196.366 383.699 189.39C381.739 186.955 379.748 184.549 377.637 181.994C379.024 182.054 380.14 182.655 381.226 183.166C385.87 185.481 390.273 188.127 393.832 191.976C397.149 195.584 400.195 199.402 402.638 203.672C403.482 205.145 404.116 206.739 404.176 208.482C403.543 211.399 403.121 214.406 401.16 216.841Z" fill="#DFBCB0"/>
<path d="M490.669 203.912C490.066 212.451 490.096 221.682 487.321 230.581C487.261 230.822 487.201 231.062 487.11 231.303C486.839 231.874 486.96 233.017 486.085 232.836C485.391 232.686 485.512 231.634 485.602 230.972C486.085 227.515 486.567 224.057 487.171 220.629C487.804 217.021 488.045 213.413 488.256 209.775C488.407 207.039 488.467 204.273 488.467 201.537C488.437 193.9 488.618 186.233 486.779 178.716C485.753 174.477 483.974 170.598 480.687 167.562C478.938 165.938 478.787 164.044 479.933 162.27C480.415 161.518 480.777 161.398 481.531 162.12C485.542 165.998 487.593 170.869 488.859 176.161C489.644 179.438 489.975 182.745 490.096 186.113C490.217 191.825 490.428 197.568 490.669 203.912Z" fill="#C0C0C0"/>
<path d="M374.983 93.6277C373.747 93.6277 372.48 93.6277 370.791 93.6277C373.113 91.974 375.013 90.4406 377.034 89.1778C378.632 88.1856 379.839 86.7725 381.286 85.6299C383.699 83.7959 386.021 83.9763 387.71 86.5019C389.097 88.5765 389.791 91.0419 390.786 93.2969C391.238 94.3493 391.6 95.4317 391.962 96.5441C392.083 96.8749 392.143 97.2657 391.842 97.5363C391.51 97.837 391.178 97.5664 390.876 97.4461C389.73 96.9651 388.946 96.0631 387.981 95.3114C387.378 94.8303 386.835 94.3493 385.991 94.3793C383.97 93.0564 381.708 93.1767 379.477 93.2969C377.969 93.4172 376.491 93.5375 374.983 93.6277Z" fill="#DFBCB0"/>
<path d="M442.688 192.156C445.251 191.074 447.905 190.533 451.041 190.533C448.93 192.878 447.603 195.674 444.407 196.516C443.17 196.847 441.964 195.554 442.115 194.111C442.175 193.629 442.266 193.148 442.356 192.637C442.446 192.487 442.567 192.307 442.688 192.156Z" fill="#DFBCB0"/>
<path d="M373.626 185.06C373.023 184.008 372.39 182.956 371.787 181.903C371.575 181.513 371.304 181.062 371.636 180.641C371.937 180.28 372.36 180.49 372.752 180.611C373.294 180.761 373.596 181.001 373.596 181.633C373.596 182.745 373.566 183.858 373.626 185.06Z" fill="#DFBCB0"/>
<path d="M465.366 190.683C467.176 190.202 467.87 188.999 468.563 187.466C469.287 185.782 470.795 184.459 471.971 182.986C472.152 182.775 472.393 182.505 472.725 182.685C473.147 182.926 473.328 183.347 473.358 183.798C473.389 186.203 470.011 190.503 467.658 191.134C466.905 191.314 466.814 191.314 465.366 190.683Z" fill="#DFBCB0"/>
<path d="M450.378 200.244C448.207 200.485 446.126 201.056 443.954 200.815C443.412 200.755 443.291 200.425 443.713 200.004C444.226 199.492 444.799 198.981 445.523 199.132C447.151 199.402 448.538 200.635 450.378 200.244Z" fill="#DFBCB0"/>
<path d="M460.994 198.651C459.395 199.072 458.008 199.583 456.108 199.673C457.737 198.47 459.033 197.688 460.994 198.651Z" fill="#DFBCB0"/>
<path d="M334.119 155.896C334.542 153.611 334.662 152.558 337.316 152.739C338.311 152.799 339.668 152.258 340.151 153.009C340.543 153.611 339.276 154.483 338.854 155.325C338.522 155.986 338.13 156.647 337.648 157.219C337.226 157.67 337.437 158.933 336.2 158.482C335.084 158.061 334.119 156.918 334.119 155.896Z" fill="#DFBCB0"/>
<path d="M477.279 137.465C477.158 144.17 477.068 150.875 474.354 157.159C473.208 159.804 471.549 161.999 468.985 163.412C467.055 164.465 466.09 163.894 465.909 161.729C465.698 158.963 467.025 156.708 468.322 154.453C470.282 151.085 472.725 148.018 474.474 144.501C475.59 142.245 476.615 139.93 477.279 137.465Z" fill="#DFBCB0"/>
<path d="M418.712 217.172C418.501 219.216 416.812 219.968 415.968 221.291C415.546 221.952 415.154 222.373 415.485 223.245C415.908 224.358 414.912 225.26 413.706 224.869C412.017 224.298 411.022 225.53 409.816 226.192C409.273 226.492 410.298 226.673 409.936 227.064C409.303 227.725 408.579 227.755 407.946 227.244C407.463 226.853 407.252 226.883 406.74 227.154C405.594 227.725 404.357 227.635 403.06 227.515C401.191 227.334 399.502 226.853 397.813 226.162C395.31 225.139 393.018 223.907 391.57 221.501C391.48 221.351 391.299 221.201 391.118 221.171C389.067 220.479 387.529 219.306 387.046 217.051C386.926 216.45 386.172 216.6 385.81 216.119C384.242 214.045 383.156 211.7 382.372 209.294C381.648 207.099 380.382 205.025 380.593 202.529C380.683 201.597 380.231 200.304 381.226 199.974C382.04 199.703 383.096 199.462 384.181 200.244C385.931 201.537 387.619 202.95 389.64 203.882C391.721 204.844 393.832 204.784 395.4 203.191C397.903 200.635 400.346 198.049 402.698 195.373C402.97 195.043 403.483 193.75 404.448 194.922C404.719 195.253 405.081 194.952 405.111 194.501C405.232 192.968 405.835 192.397 407.192 192.517C409.936 192.727 412.681 192.878 415.274 193.99C415.576 194.111 415.908 194.111 416.3 193.75C417.114 192.968 418.019 193.028 418.592 194.111C419.014 194.892 419.587 195.253 420.522 195.223C421.879 195.163 423.206 195.464 424.563 195.103C425.015 194.983 425.347 195.193 425.588 195.674C425.89 196.305 426.071 197.057 425.528 197.478C423.779 198.891 423.507 200.966 423.447 202.83C423.357 205.867 422.03 208.633 421.698 211.609C421.607 212.361 421.155 213.534 420.582 214.375C420.341 214.736 420.22 214.917 420.703 215.187C421.819 215.819 421.698 216.63 421.034 217.532C420.281 218.555 419.557 217.983 418.712 217.172Z" fill="#2F5DBE"/>
<path d="M5.69973 254.965C7.5092 254.274 9.28852 253.342 11.1583 252.951C15.3503 252.049 19.0295 249.734 23.2215 248.832C25.0008 248.471 26.5992 247.329 28.288 246.547C32.2387 244.713 36.31 243.179 39.9893 240.744C42.4924 239.09 45.2971 237.918 48.1017 236.805C54.7365 234.159 60.7077 230.191 67.0107 226.853C84.8039 217.382 99.8828 204.724 112.489 189.089C124.371 174.357 135.891 159.384 146.809 143.929C151.362 137.495 155.434 130.76 159.022 123.754C166.351 109.533 173.679 95.3415 180.977 81.0899C182.365 78.3839 183.541 75.5275 184.446 72.6111C184.807 71.4986 185.019 70.4162 184.054 69.3939C183.571 68.8828 183.39 68.071 183.933 67.4396C184.566 66.718 185.079 67.4095 185.622 67.7102C187.401 68.7625 189.361 69.3939 191.261 70.1757C199.736 73.6333 207.335 78.5943 214.724 83.9161C215.357 84.3972 215.93 84.8783 216.895 84.6377C217.619 84.4573 218.072 85.0587 218.192 85.7803C218.313 86.4417 218.614 86.9829 219.127 87.4339C227.782 94.7702 234.9 103.55 242.288 112.089C244.46 114.584 246.541 117.17 248.652 119.695C249.104 120.237 249.496 120.718 250.401 120.567C251.155 120.447 251.788 121.018 251.607 121.74C251.275 123.033 252.029 123.724 252.693 124.506C259.871 132.594 266.324 141.223 271.421 150.784C272.838 153.43 274.407 156.016 275.915 158.602C280.86 167.141 286.138 175.499 290.119 184.579C291.054 186.714 292.411 188.548 294.582 189.721C295.547 190.232 296.181 190.984 295.427 192.156C295.065 192.727 295.577 192.848 295.909 192.998C297.839 193.84 298.412 195.403 298.503 197.358C298.654 200.575 297.477 203.551 296.844 206.648C296.603 207.851 295.216 207.61 294.281 207.671C293.376 207.731 292.924 207.009 292.863 206.227C292.743 204.874 292.682 203.521 293.014 202.198C293.497 200.214 293.919 198.2 294.401 196.185C294.522 195.674 294.612 195.223 293.949 195.223C291.959 195.253 290.089 194.531 288.128 194.441C287.405 194.411 287.073 194.712 286.741 195.313C285.143 198.47 282.489 200.605 279.533 202.379C278.056 203.251 276.488 203.251 274.859 202.89C270.034 201.838 266.204 197.328 266.264 192.758C266.324 189.089 268.013 186.594 271.421 185.211C272.929 184.609 274.497 184.249 276.095 184.158C277.362 184.098 278.629 184.189 279.865 183.918C283.394 183.136 285.113 185.692 287.073 187.706C287.827 188.488 288.128 189.661 287.947 190.803C287.797 191.735 288.219 192.066 289.093 192.096C290.42 192.126 291.747 192.397 293.285 192.186C292.893 191.555 292.622 191.044 292.29 190.563C290.028 187.496 288.611 184.038 287.194 180.55C285.776 177.063 283.936 173.785 282.067 170.508C277.03 161.729 271.994 152.949 266.927 144.17C262.796 137.044 257.428 130.88 252.15 124.656C251.698 124.115 251.336 123.995 250.823 124.536C250.552 124.837 250.25 125.138 249.918 125.318C249.044 125.829 249.255 126.25 249.737 127.032C253.387 133.105 258.905 137.645 263.037 143.298C263.489 143.899 263.912 144.531 264.304 145.162C269.129 152.799 273.11 160.887 278.146 168.404C280.257 171.53 281.976 174.958 283.937 178.205C285.052 180.039 286.138 181.903 287.254 183.768C287.555 184.279 288.068 184.88 287.284 185.301C286.621 185.662 286.289 185.06 286.017 184.579C283.424 179.648 280.046 175.199 277.724 170.117C277.151 168.855 276.276 167.712 275.492 166.539C270.938 159.624 267.531 152.047 262.916 145.162C261.409 142.937 259.75 140.772 257.91 138.788C254.804 135.45 252.06 131.812 249.225 128.234C245.153 123.093 241.836 117.32 236.679 113.021C234.839 111.487 233.392 109.503 232.155 107.428C229.532 102.978 225.46 100.002 221.449 96.9951C219.549 95.582 217.74 94.0787 216.051 92.425C215.418 91.7936 214.815 91.5831 213.91 91.7034C212.311 91.9439 211.98 91.5531 212.251 89.9595C212.372 89.268 211.889 89.0575 211.497 88.817C207.396 86.3215 203.686 83.3749 200.218 80.0676C198.921 78.8349 197.504 77.6923 196.328 76.3093C194.156 73.8438 191.412 72.4006 188.306 71.4685C187.461 71.228 187.039 71.3783 186.677 72.1901C179.711 88.2157 170.332 103.008 162.641 118.643C157.002 130.159 150.156 140.953 142.466 151.205C131.79 165.457 121.114 179.709 109.594 193.299C97.9829 206.949 84.2309 217.953 68.4885 226.522C61.0093 230.611 53.6809 235.031 45.8701 238.489C44.1812 239.241 42.6432 240.323 41.0749 241.315C35.4656 244.773 29.434 247.419 23.4024 250.004C17.2804 252.62 10.8869 254.605 4.61404 256.8C2.53315 257.521 0.150673 255.657 0.0601996 253.192C-0.0302741 250.486 -0.120748 247.749 0.331621 245.104C0.783989 242.518 2.38236 240.353 4.67436 238.91C5.54894 238.369 6.21241 238.91 6.57431 239.752C6.99652 240.684 7.14731 241.736 7.08699 242.698C6.81557 246.697 7.32825 250.846 5.36799 254.635C5.48862 254.785 5.60925 254.875 5.69973 254.965ZM284.057 197.568C281.283 199.823 277.302 200.214 275.342 198.23C273.623 196.486 272.476 194.321 272.657 191.795C272.838 189.27 274.286 187.346 276.457 185.572C273.984 185.662 271.994 186.083 270.215 187.195C268.978 187.977 268.134 189.059 267.681 190.442C266.264 194.802 268.646 199.492 273.321 201.507C277.272 203.221 281.765 201.537 284.057 197.568C285.083 197.177 285.294 196.125 285.806 195.343C285.927 195.133 286.168 194.772 285.776 194.592C285.444 194.441 285.233 194.682 285.082 194.982C284.751 195.824 284.389 196.696 284.057 197.568ZM249.134 121.229C248.833 120.808 248.591 120.447 248.29 120.116C244.58 115.727 240.901 111.277 237.131 106.917C231.522 100.423 225.913 93.9584 219.368 88.366C218.584 87.7045 218.132 87.464 217.71 88.6667C217.499 89.268 217.167 89.8693 216.745 90.3504C216.111 91.072 216.353 91.4629 216.956 92.0642C219.489 94.5297 222.264 96.6644 225.068 98.7691C227.662 100.693 230.074 102.828 231.824 105.534C233.844 108.661 236.197 111.517 238.82 114.133C241.655 116.959 244.822 119.485 246.511 123.273C246.631 123.514 246.903 123.965 247.144 123.724C247.868 122.973 248.441 122.101 249.134 121.229ZM283.695 195.013C280.408 194.892 279.413 194.201 279.594 192.276C279.654 191.765 279.805 191.254 280.257 190.984C281.614 190.202 283.002 190.503 284.389 191.014C284.54 190.412 284.419 189.991 284.148 189.601C283.846 189.15 283.363 188.608 284.178 188.248C284.811 187.977 285.173 188.578 285.414 189.059C285.565 189.36 285.656 189.721 285.716 190.052C285.836 190.623 285.535 191.675 286.56 191.374C287.224 191.194 286.892 190.232 286.711 189.631C286.56 189.119 286.228 188.638 285.927 188.187C284.54 186.203 279.624 185.722 278.146 186.353C273.864 188.217 272.748 193.419 275.884 196.817C277.332 198.41 279.292 198.26 281.072 197.929C282.489 197.719 283.303 196.486 283.695 195.013ZM187.582 69.8449C188.276 70.1155 188.939 70.4162 189.633 70.6567C192.528 71.679 194.91 73.4529 197.052 75.6478C201.213 79.9173 205.616 83.9462 210.683 87.1633C213.156 88.7268 213.065 88.7268 214.875 86.4117C215.508 85.5999 215.508 85.1489 214.634 84.5175C208.813 80.3081 202.812 76.3995 196.388 73.1523C193.614 71.7091 190.688 70.5365 187.582 69.8449ZM296.392 195.163C295.336 197.839 295.004 200.334 294.311 202.71C294.07 203.551 294.19 204.393 294.251 205.265C294.281 205.626 294.16 206.137 294.793 206.137C295.276 206.137 295.668 205.957 295.789 205.416C296.211 203.732 296.935 202.078 296.995 200.304C297.025 198.711 297.357 197.027 296.392 195.163ZM1.53794 248.712C1.23636 252.741 1.35699 253.552 2.38236 254.575C2.68394 253.763 3.01567 252.981 3.25694 252.199C4.01088 249.764 4.01088 249.764 1.53794 248.712ZM282.429 193.539C282.76 193.509 283.333 193.72 283.243 193.088C283.183 192.577 283.092 191.946 282.308 191.946C281.825 191.946 281.192 191.886 281.162 192.577C281.132 193.359 281.825 193.419 282.429 193.539ZM2.65378 243.69C2.17125 243.871 1.80936 244.322 1.86967 244.683C2.08078 245.615 3.07599 245.164 3.67915 245.434C4.16167 245.645 4.25215 245.194 4.22199 244.833C4.13152 243.841 3.10615 244.172 2.65378 243.69ZM216.503 87.7045C215.749 88.366 215.267 88.7869 214.784 89.2079C214.603 89.3582 214.453 89.6288 214.694 89.8393C214.905 90.0497 215.176 89.9896 215.357 89.8092C215.84 89.3582 216.353 88.8771 216.503 87.7045Z" fill="#3E2723"/>
<path d="M491.634 216.991C492.418 218.645 492.116 220.449 491.936 222.043C491.664 224.658 491.031 227.244 489.855 229.71C489.161 231.123 488.498 232.656 487.804 234.099C486.839 236.084 485.18 237.647 483.401 239.03C482.858 239.451 482.285 239.842 481.742 240.263C480.234 241.405 478.214 241.556 477.128 240.113C476.223 238.94 474.806 238.218 474.323 236.745C473.811 235.152 472.635 233.949 472.062 232.295C471.187 229.679 469.83 227.244 468.533 224.779C466.904 221.652 465.578 218.374 464.371 215.037C463.889 213.654 463.497 212.301 463.255 210.918C462.803 208.302 465.698 206.107 468.382 207.069C470.222 207.731 472.152 208.242 473.509 209.956C474.112 210.707 475.258 211.279 476.133 209.835C476.796 208.753 478.003 208.392 479.179 207.941C480.084 207.611 480.536 208.242 481.199 208.272C483.22 208.392 484.698 209.685 485.874 211.128C486.567 211.97 487.201 211.549 487.352 211.158C487.804 210.076 488.498 210.286 489.101 210.707C489.855 211.249 489.885 212 489.252 212.752C488.528 213.624 488.89 214.586 490.126 214.887C491.423 215.217 491.785 215.939 491.634 216.991Z" fill="#2F5DBE"/>
<path d="M368.771 0C372.812 0.2706 376.039 1.29287 378.331 3.9688C379.839 5.74274 381.316 7.60687 382.04 9.92201C382.161 10.3429 382.704 10.6436 382.945 11.0645C384.423 13.6503 385.146 16.5066 385.991 19.3629C386.896 22.3997 387.197 25.5567 387.65 28.6536C388.283 32.9531 388.916 37.2526 388.645 41.6123C388.615 42.364 388.434 43.1758 388.343 43.9274C388.253 44.619 387.861 45.3105 387.107 45.3406C386.383 45.3706 385.388 45.6412 385.056 44.5889C384.935 44.2281 384.935 43.9274 384.453 43.9575C383.578 44.0477 383.216 43.266 383.066 42.7849C382.402 40.1992 380.985 37.9141 380.261 35.3284C379.688 33.2838 378.874 31.2994 378.391 29.2248C377.667 26.1881 376.129 23.5121 374.802 20.746C374.229 19.5433 373.083 18.7015 371.907 18.04C368.891 16.3563 365.544 16.5367 362.257 16.3863C359.573 16.236 356.979 15.5445 354.838 13.7705C353.541 12.7182 353.239 10.5835 354.325 8.95987C355.652 6.91534 357.371 5.2316 359.331 3.608C360.93 2.28507 362.769 2.01447 364.398 1.02227C365.876 0.150333 367.655 0.210467 368.771 0Z" fill="#3E2723"/>
<path d="M475.047 128.114C473.509 128.685 472.363 127.272 471.097 126.641C469.046 125.619 466.874 124.837 464.914 123.755C462.411 122.371 460.089 120.537 459.033 117.681C458.159 115.246 459.727 112.93 462.17 111.818C463.617 111.157 465.276 110.946 466.482 111.157C468.352 111.487 470.433 111.758 472.001 113.381C474.957 116.448 475.982 120.417 477.49 124.145C477.792 124.927 477.762 125.799 478.003 126.611C478.335 127.693 477.611 128.295 476.404 128.204C476.012 128.204 475.62 128.174 475.047 128.114Z" fill="#3E2723"/>
<path d="M354.295 69.4841C354.476 68.0109 354.717 66.1467 354.928 64.2826C354.958 63.9218 355.109 63.7113 355.411 63.591C357.25 62.9296 358.969 61.8772 360.93 61.6668C361.895 61.5766 362.618 61.0354 363.644 60.9752C367.745 60.7347 370.399 63.0799 373.234 65.395C374.531 66.4474 374.591 67.9207 375.044 69.2135C375.496 70.4463 373.536 71.9195 372.179 71.3483C369.314 70.1456 366.358 69.9051 363.312 70.1757C362.588 70.2358 361.895 70.1456 361.231 70.2057C360.357 70.2959 359.392 70.1456 358.638 70.9875C357.703 72.0097 356.315 71.9195 355.079 71.7993C353.963 71.7091 354.415 70.5966 354.295 69.4841Z" fill="#3E2723"/>
<path d="M303.539 225.831C303.75 225.62 303.961 225.41 304.172 225.23C304.987 224.508 305.741 223.576 307.037 224.117C307.791 224.418 308.877 226.823 308.515 227.695C308.153 228.597 308.515 228.958 309.209 229.319C309.33 229.379 309.48 229.469 309.601 229.559C310.385 230.13 311.35 230.762 310.626 231.844C309.933 232.866 308.998 232.265 308.274 231.724C307.58 231.183 306.887 231.303 306.374 231.814C305.831 232.355 306.585 232.776 306.796 233.227C307.037 233.738 307.43 233.498 307.822 233.378C309.48 232.897 311.561 234.189 311.953 235.873C312.074 236.354 311.953 236.775 311.591 237.106C310.928 237.677 310.295 237.196 309.571 236.956C309.963 238.609 310.626 239.601 312.587 239.511C313.672 239.451 314.004 239.391 313.733 238.278C312.375 233.107 311.199 227.875 308.576 223.125C305.831 218.074 303.599 212.722 300.192 208.031C299.981 207.761 299.86 207.43 299.739 207.099C299.408 206.197 299.468 205.295 300.493 204.995C301.579 204.694 302.031 205.536 302.152 206.438C302.333 207.971 302.966 209.324 303.63 210.677C305.861 215.277 308.153 219.848 310.234 224.508C312.436 229.439 313.823 234.701 315.15 239.932C315.542 241.435 315.06 241.796 313.612 241.255C312.979 241.015 312.345 240.834 311.712 240.924C310.023 241.135 309.269 240.323 308.606 238.82C307.791 236.956 306.585 235.272 305.499 233.528C303.539 230.341 302.544 226.763 301.247 223.275C301.006 222.644 301.036 221.922 300.161 221.652C299.528 221.441 299.528 220.72 299.86 220.238C300.373 219.457 300.192 218.735 299.92 217.953C299.166 215.608 298.473 213.263 297.719 210.948C297.538 210.407 297.417 209.926 298.05 209.715C298.744 209.475 299.076 209.956 299.227 210.527C299.769 212.662 300.312 214.796 300.795 216.931C300.976 217.713 301.127 218.254 302.152 217.773C302.695 217.502 303.268 217.773 303.539 218.344C303.841 218.885 303.69 219.427 303.298 219.878C303.087 220.088 302.846 220.269 302.604 220.449C302.152 220.78 301.549 221.231 302.001 221.772C302.484 222.373 302.755 221.501 303.117 221.291C304.022 220.84 304.926 220.599 305.53 221.561C306.193 222.614 305.439 223.125 304.504 223.576C302.785 224.237 302.695 224.508 303.539 225.831ZM306.887 228.687C306.072 228.447 306.645 226.492 305.107 227.274C303.961 227.875 304.172 228.898 304.806 229.529C305.711 230.431 306.012 228.777 306.887 228.687Z" fill="#3E2723"/>
<path d="M453.846 199.943C454.329 199.793 454.872 200.094 455.475 200.124C456.802 200.184 456.681 201.387 456.53 202.168C455.957 204.844 456.892 207.49 456.621 210.166C456.5 211.309 456.621 212.481 456.349 213.624C456.108 214.526 455.806 215.518 454.781 215.518C453.786 215.518 453.122 214.526 452.821 213.714C452.067 211.639 451.162 209.655 450.288 207.641C449.202 205.115 450.257 201.597 452.459 200.154C452.881 199.883 453.303 199.974 453.846 199.943Z" fill="#2F5DBE"/>
<path d="M366.087 50.933C364.82 50.8127 363.734 50.6323 363.855 49.2793C364.006 47.8361 365.242 47.806 366.358 47.776C367.323 47.776 367.866 48.257 367.896 49.2192C367.926 50.2715 367.022 50.9931 366.087 50.933Z" fill="#3E2723"/>
<path d="M355.833 47.8361C356.888 47.9564 357.522 48.5577 357.522 49.58C357.522 50.6924 356.858 51.3539 355.742 51.3238C354.717 51.2938 354.054 50.6924 354.054 49.61C354.054 48.4976 354.747 47.9263 355.833 47.8361Z" fill="#3E2723"/>
<path d="M456.048 139.479C454.992 139.389 454.329 138.848 454.299 137.796C454.268 136.683 454.902 135.992 456.018 135.992C457.043 135.992 457.737 136.593 457.767 137.645C457.827 138.788 457.133 139.329 456.048 139.479Z" fill="#3E2723"/>
<path d="M461.355 140.171C461.386 139.119 461.898 138.457 463.014 138.487C464.07 138.517 464.492 139.179 464.462 140.201C464.432 141.283 463.979 142.155 462.803 142.095C461.717 142.065 461.355 141.193 461.355 140.171Z" fill="#3E2723"/>
<path d="M379.055 131.752C379.024 132.203 378.844 133.075 377.788 133.195C376.823 133.316 375.707 132.293 375.737 131.512C375.767 130.79 377.064 129.648 377.788 129.678C378.572 129.648 379.055 130.339 379.055 131.752Z" fill="#3E2723"/>
<path d="M390.635 145.433C389.55 145.703 389.127 145.192 389.067 144.32C389.007 143.238 389.942 142.155 390.877 142.246C391.691 142.336 392.234 142.787 392.234 143.689C392.234 144.801 392.113 145.823 390.635 145.433Z" fill="#3E2723"/>
<path d="M394.767 137.615C394.616 138.698 394.103 139.239 392.897 139.239C391.6 139.239 391.54 138.247 391.54 137.495C391.54 136.593 392.264 135.871 393.229 135.932C394.103 136.022 394.737 136.593 394.767 137.615Z" fill="#3E2723"/>
<path d="M377.517 112.479C377.607 114.013 376.642 114.314 375.888 114.404C374.983 114.494 374.229 113.832 374.32 112.84C374.41 111.938 374.833 111.096 375.948 111.096C377.155 111.066 377.396 111.908 377.517 112.479Z" fill="#3E2723"/>
<path d="M387.499 137.375C388.584 137.254 388.645 138.006 388.615 138.668C388.615 139.69 388.313 140.712 387.016 140.652C385.84 140.622 385.448 139.54 385.478 138.698C385.569 137.675 386.654 137.585 387.499 137.375Z" fill="#3E2723"/>
<path d="M381.256 122.432C379.959 122.582 379.537 121.499 379.597 120.748C379.628 120.056 380.382 119.305 381.407 119.365C382.493 119.425 383.005 119.966 382.975 121.079C382.915 122.281 382.131 122.401 381.256 122.432Z" fill="#3E2723"/>
<path d="M392.988 118.493C392.023 118.763 391.962 117.982 391.902 117.29C391.842 116.298 392.867 115.216 393.772 115.336C394.616 115.456 395.099 115.997 395.099 116.869C395.069 118.162 394.224 118.523 392.988 118.493Z" fill="#3E2723"/>
<path d="M402.91 112.209C401.824 112.059 401.432 111.277 401.402 110.375C401.371 108.992 402.698 109.142 403.483 108.962C404.056 108.811 404.749 109.292 404.659 110.134C404.568 111.217 404.025 111.938 402.91 112.209Z" fill="#3E2723"/>
<path d="M381.558 136.563C380.894 136.623 380.683 135.571 380.653 135.06C380.623 134.158 381.316 133.316 382.281 133.286C383.427 133.286 383.88 134.278 383.819 135.27C383.789 136.413 382.824 136.443 381.558 136.563Z" fill="#3E2723"/>
<path d="M402.517 177.995C401.492 178.085 401.1 177.814 401.07 176.672C401.04 175.229 401.733 175.259 402.729 175.289C403.573 175.319 404.478 175.349 404.357 176.491C404.237 177.484 403.724 178.265 402.517 177.995Z" fill="#3E2723"/>
<path d="M388.404 131.692C389.791 131.662 390.062 132.805 390.062 133.586C390.062 134.789 388.735 134.879 387.951 134.909C386.926 134.939 387.016 133.707 387.016 133.105C386.986 132.474 387.378 131.572 388.404 131.692Z" fill="#3E2723"/>
<path d="M375.737 106.737C375.737 107.789 375.074 108.42 374.139 108.511C373.325 108.571 372.842 107.819 372.752 107.037C372.661 106.286 373.898 104.933 374.531 104.963C375.315 104.993 375.737 105.624 375.737 106.737Z" fill="#3E2723"/>
<path d="M398.567 108.571C398.235 108.541 397.873 108.481 397.541 108.481C396.787 108.481 396.757 107.789 396.576 107.368C396.365 106.827 397.119 106.827 397.27 106.616C397.662 106.105 397.873 105.865 398.597 105.835C399.833 105.775 400.105 106.466 400.135 107.428C400.195 108.541 399.472 108.661 398.567 108.571Z" fill="#3E2723"/>
<path d="M398.959 171.14C399.019 172.132 398.718 172.944 397.722 172.853C396.968 172.793 395.913 172.613 395.943 171.47C396.003 170.328 396.727 169.606 397.843 169.636C398.778 169.636 399.019 170.388 398.959 171.14Z" fill="#3E2723"/>
<path d="M387.559 167.291C388.916 167.051 388.735 168.223 388.856 168.975C389.097 170.328 387.77 170.057 387.197 170.177C386.443 170.298 385.689 169.847 385.78 168.764C385.84 167.712 386.383 167.201 387.559 167.291Z" fill="#3E2723"/>
<path d="M478.757 172.613C477.339 172.643 476.977 171.741 476.826 170.749C476.615 169.516 477.701 169.757 478.334 169.636C479.571 169.426 479.872 170.538 480.023 171.29C480.114 171.981 479.631 172.703 478.757 172.613Z" fill="#3E2723"/>
<path d="M391.872 130.219C390.907 130.068 390.545 129.347 390.575 128.475C390.605 127.453 391.45 127.122 392.234 127.182C392.988 127.242 393.922 127.663 393.772 128.595C393.621 129.467 393.229 130.459 391.872 130.219Z" fill="#3E2723"/>
<path d="M404.719 170.568C404.689 171.801 404.357 172.553 403.211 172.583C401.914 172.613 402.065 171.621 402.005 170.809C401.914 169.787 402.487 169.366 403.422 169.306C404.387 169.275 404.87 169.757 404.719 170.568Z" fill="#3E2723"/>
<path d="M469.016 169.877C467.689 169.997 467.478 169.155 467.387 168.103C467.266 166.75 468.473 167.02 469.016 166.96C469.528 166.9 470.916 167.111 470.584 167.742C470.252 168.464 470.735 170.147 469.016 169.877Z" fill="#3E2723"/>
<path d="M485.421 173.816C484.456 173.816 483.733 173.515 483.703 172.402C483.672 171.2 484.456 170.689 485.452 170.568C486.477 170.448 486.688 171.47 486.658 172.102C486.598 172.763 486.658 173.846 485.421 173.816Z" fill="#3E2723"/>
<path d="M386.564 146.335C386.715 147.417 386.112 147.868 385.237 147.928C384.242 147.988 383.759 147.146 383.729 146.425C383.699 145.733 383.699 144.621 384.966 144.651C386.081 144.651 386.685 145.162 386.564 146.335Z" fill="#3E2723"/>
<path d="M462.441 186.113C461.295 186.293 461.084 185.692 461.054 184.73C460.994 183.467 461.748 183.166 462.713 183.166C463.467 183.136 464.16 183.557 464.04 184.399C463.919 185.271 463.889 186.413 462.441 186.113Z" fill="#3E2723"/>
<path d="M381.769 113.923C383.156 113.682 383.186 114.765 383.216 115.516C383.247 116.328 382.855 117.11 381.739 116.959C380.653 116.809 380.291 115.997 380.261 115.035C380.261 114.073 380.955 113.832 381.769 113.923Z" fill="#3E2723"/>
<path d="M482.888 168.404C481.923 168.434 481.23 168.073 481.32 167.171C481.411 166.299 481.923 165.397 482.949 165.427C483.944 165.457 484.456 166.419 484.517 167.261C484.607 168.313 483.522 168.223 482.888 168.404Z" fill="#3E2723"/>
<path d="M404.538 124.807C403.422 124.656 403.181 123.875 403.181 122.913C403.181 122.011 403.814 121.65 404.508 121.77C405.443 121.92 406.227 122.432 406.197 123.544C406.167 124.536 405.503 124.867 404.538 124.807Z" fill="#3E2723"/>
<path d="M372.148 123.815C371.937 122.371 372.933 122.191 373.807 122.101C375.044 121.981 375.074 123.093 375.104 123.875C375.164 125.228 373.867 125.017 373.114 125.138C372.299 125.288 371.907 124.566 372.148 123.815Z" fill="#3E2723"/>
<path d="M400.376 119.936C400.225 120.808 400.045 121.74 398.959 121.71C398.205 121.68 397.391 121.5 397.451 120.327C397.511 119.094 398.235 118.643 399.23 118.553C400.135 118.433 400.256 119.275 400.376 119.936Z" fill="#3E2723"/>
<path d="M379.236 127.603C377.667 127.693 377.607 126.761 377.547 125.859C377.486 124.897 378.059 124.446 378.904 124.476C380.231 124.536 380.351 125.739 380.472 126.641C380.593 127.573 379.628 127.513 379.236 127.603Z" fill="#3E2723"/>
<path d="M396.456 165.517C396.426 164.405 397.029 163.954 397.903 163.894C399.019 163.803 399.381 164.705 399.441 165.517C399.472 166.088 399.472 167.171 398.567 167.111C397.662 167.02 396.848 166.419 396.456 165.517Z" fill="#3E2723"/>
<path d="M393.862 122.131C393.802 123.213 392.807 123.754 392.143 123.724C391.359 123.724 391.118 122.702 391.088 121.86C391.058 120.868 391.6 120.267 392.475 120.327C393.38 120.387 393.922 121.109 393.862 122.131Z" fill="#3E2723"/>
<path d="M392.927 173.094C392.988 174.206 392.294 174.988 391.48 174.898C390.394 174.808 390.213 173.725 390.183 172.703C390.153 171.44 391.088 171.801 391.691 171.741C392.746 171.651 393.138 172.162 392.927 173.094Z" fill="#3E2723"/>
<path d="M383.005 141.374C383.096 142.185 382.824 142.847 381.829 142.787C380.894 142.727 380.17 142.456 380.201 141.193C380.231 139.991 380.774 139.81 381.769 139.78C382.975 139.75 383.066 140.442 383.005 141.374Z" fill="#3E2723"/>
<path d="M374.742 116.959C375.556 116.929 376.069 117.38 376.099 118.373C376.129 119.665 375.044 119.695 374.229 119.816C373.445 119.936 372.993 119.425 373.023 118.523C373.053 117.471 373.536 116.959 374.742 116.959Z" fill="#3E2723"/>
<path d="M386.926 161.759C387.951 161.639 388.404 162.33 388.343 163.172C388.313 163.743 388.162 164.735 387.227 164.585C386.383 164.465 385.116 164.645 385.388 163.022C385.539 161.939 385.599 161.729 386.926 161.759Z" fill="#3E2723"/>
<path d="M393.681 111.728C392.988 111.698 392.384 111.187 392.415 110.585C392.445 109.804 392.807 108.871 393.802 108.781C394.827 108.691 395.491 109.383 395.551 110.375C395.641 111.608 394.465 111.427 393.681 111.728Z" fill="#3E2723"/>
<path d="M479.269 192.968C479.39 193.69 478.907 194.441 477.942 194.471C477.038 194.501 476.495 193.72 476.465 192.908C476.435 192.006 477.128 191.374 477.942 191.314C478.636 191.254 479.36 191.735 479.269 192.968Z" fill="#3E2723"/>
<path d="M410.238 160.857C409.243 160.857 408.82 160.255 408.67 159.594C408.489 158.872 409.695 157.76 410.449 157.82C411.414 157.88 411.927 158.602 411.866 159.384C411.776 160.255 410.871 160.586 410.238 160.857Z" fill="#3E2723"/>
<path d="M390.273 106.015C390.153 107.098 390.364 108.18 389.097 107.909C388.464 107.789 387.227 108.21 387.227 106.887C387.258 105.835 387.951 105.113 388.946 104.993C389.67 104.933 390.545 105.203 390.273 106.015Z" fill="#3E2723"/>
<path d="M400.165 114.674C400.316 115.576 399.773 115.787 398.929 115.757C397.813 115.727 397.149 114.975 397.21 113.712C397.24 112.991 397.873 112.81 398.386 112.84C399.411 112.93 400.225 113.381 400.165 114.674Z" fill="#3E2723"/>
<path d="M396.848 131.091C397.602 131.211 398.235 131.692 398.356 132.534C398.476 133.496 397.813 134.278 396.999 134.308C396.064 134.368 395.46 133.496 395.43 132.564C395.4 131.812 395.792 131.181 396.848 131.091Z" fill="#3E2723"/>
<path d="M413.193 168.434C413.827 168.644 414.641 168.584 414.641 169.576C414.641 170.328 413.495 171.591 412.741 171.681C411.746 171.771 411.746 171.019 411.685 170.448C411.595 169.426 412.409 168.464 413.193 168.434Z" fill="#3E2723"/>
<path d="M378.663 109.443C377.848 109.533 377.517 109.172 377.577 108.33C377.637 107.278 378.09 106.647 379.205 106.677C379.899 106.707 380.532 106.737 380.472 107.819C380.382 109.082 379.748 109.443 378.663 109.443Z" fill="#3E2723"/>
<path d="M392.023 103.129C391.781 102.167 392.837 101.926 393.259 102.076C393.923 102.347 395.31 101.746 395.189 103.219C395.129 103.971 394.767 104.692 393.923 104.812C393.108 104.933 392.023 103.971 392.023 103.129Z" fill="#3E2723"/>
<path d="M382.945 110.134C382.885 109.052 383.397 108.631 384.453 108.541C385.599 108.42 385.84 109.202 385.931 109.954C386.081 111.217 384.845 111.277 384.121 111.427C383.609 111.577 382.824 111.066 382.945 110.134Z" fill="#3E2723"/>
<path d="M402.065 127.513C402.879 127.483 403.633 127.483 403.452 128.565C403.302 129.497 402.849 130.279 401.764 130.189C400.829 130.129 400.346 129.347 400.376 128.625C400.467 127.753 401.251 127.363 402.065 127.513Z" fill="#3E2723"/>
<path d="M404.025 163.593C404.9 163.382 405.594 163.924 405.503 164.705C405.413 165.667 404.417 166.118 403.543 166.239C402.668 166.359 401.975 165.397 402.095 164.946C402.276 164.254 402.879 163.412 404.025 163.593Z" fill="#3E2723"/>
<path d="M399.2 125.528C399.26 126.25 398.838 126.761 397.843 126.731C396.848 126.701 396.214 126.009 396.245 125.168C396.275 124.386 396.938 123.785 397.903 123.875C398.718 123.965 399.291 124.296 399.2 125.528Z" fill="#3E2723"/>
<path d="M402.94 191.525C401.914 191.585 401.221 191.014 401.1 190.172C400.979 189.15 401.944 188.699 402.759 188.578C403.694 188.428 404.086 189.3 403.995 190.021C403.965 190.623 404.116 191.675 402.94 191.525Z" fill="#3E2723"/>
<path d="M385.629 118.643C385.689 117.26 386.624 116.959 387.469 116.839C388.404 116.689 388.585 117.651 388.585 118.252C388.585 119.034 388.072 119.816 387.167 119.786C386.413 119.756 385.508 119.545 385.629 118.643Z" fill="#3E2723"/>
<path d="M419.466 180.25C419.315 180.881 418.953 181.573 418.29 181.513C417.415 181.422 416.571 180.911 416.481 179.859C416.42 178.927 417.355 178.446 417.898 178.446C418.833 178.386 419.255 179.318 419.466 180.25Z" fill="#3E2723"/>
<path d="M424.593 172.883C424.684 173.725 424.563 174.507 423.477 174.357C422.572 174.236 421.939 173.665 421.879 172.613C421.788 171.17 423.025 171.561 423.658 171.44C424.593 171.29 424.653 172.132 424.593 172.883Z" fill="#3E2723"/>
<path d="M400.648 136.172C401.221 136.352 402.065 136.262 401.944 137.224C401.854 138.126 401.221 138.998 400.437 139.149C399.472 139.329 398.989 138.457 398.959 137.495C398.959 136.413 399.864 136.382 400.648 136.172Z" fill="#3E2723"/>
<path d="M487.472 179.829C488.407 179.648 488.859 180.13 488.799 180.971C488.709 181.903 488.226 182.715 487.201 182.805C486.236 182.866 485.934 181.903 485.964 181.302C486.025 180.55 486.266 179.498 487.472 179.829Z" fill="#3E2723"/>
<path d="M463.828 169.486C462.833 169.155 461.748 169.426 461.567 168.283C461.476 167.682 462.773 166.419 463.316 166.569C464.251 166.81 464.763 167.471 464.673 168.434C464.643 169.065 464.371 169.546 463.828 169.486Z" fill="#3E2723"/>
<path d="M391.118 160.586C391.118 159.594 391.6 158.993 392.445 159.113C393.47 159.263 393.711 160.286 393.802 161.127C393.892 162.059 392.927 162.3 392.384 162.24C391.57 162.15 391.058 161.458 391.118 160.586Z" fill="#3E2723"/>
<path d="M392.716 165.367C393.923 165.277 393.983 166.269 394.103 166.96C394.254 167.832 393.44 168.283 392.716 168.313C391.842 168.343 391.148 167.712 391.148 166.84C391.178 165.968 391.872 165.487 392.716 165.367Z" fill="#3E2723"/>
<path d="M479.812 163.893C479.33 163.653 478.636 163.743 478.365 163.262C478.063 162.691 478.214 161.999 478.485 161.398C478.666 160.977 479.119 160.737 479.45 160.947C480.144 161.368 479.179 161.248 479.209 161.518C479.239 161.909 479.631 161.939 479.722 161.819C480.174 161.188 480.596 161.188 481.049 161.759C481.41 162.18 481.199 162.601 481.079 163.112C480.898 163.893 480.265 163.653 479.812 163.893Z" fill="#3E2723"/>
<path d="M421.939 150.033C421.728 148.92 422.603 148.62 423.236 148.65C424.201 148.65 424.503 149.522 424.503 150.364C424.503 151.115 424.201 151.837 423.357 151.807C422.361 151.717 421.819 151.055 421.939 150.033Z" fill="#3E2723"/>
<path d="M484.457 176.522C484.245 177.424 483.491 177.875 482.738 177.905C481.893 177.935 481.32 177.183 481.199 176.371C481.109 175.74 481.531 175.289 482.285 175.259C483.311 175.229 484.034 175.529 484.457 176.522Z" fill="#3E2723"/>
<path d="M399.351 103.129C398.235 103.219 398.175 102.347 398.084 101.595C397.994 100.723 398.627 100.062 399.351 100.032C400.135 100.032 400.829 100.753 400.798 101.595C400.768 102.347 400.497 103.219 399.351 103.129Z" fill="#3E2723"/>
<path d="M397.3 178.807C396.124 178.987 395.702 178.416 395.642 177.514C395.581 176.552 396.335 176.04 397.059 175.95C398.114 175.83 398.235 176.792 398.326 177.574C398.446 178.416 398.295 179.137 397.3 178.807Z" fill="#3E2723"/>
<path d="M384.302 127.483C385.177 127.663 385.539 128.445 385.659 129.166C385.81 130.099 384.996 130.429 384.212 130.489C383.337 130.55 382.764 129.948 382.764 129.136C382.764 128.295 383.307 127.693 384.302 127.483Z" fill="#3E2723"/>
<path d="M423.658 183.136C424.593 183.347 425.196 183.978 425.106 184.76C425.045 185.391 424.623 186.263 423.658 186.083C422.844 185.932 422.18 185.421 422.211 184.519C422.241 183.677 422.904 183.287 423.658 183.136Z" fill="#3E2723"/>
<path d="M389.942 114.915C389.037 114.915 388.554 114.734 388.373 114.013C388.223 113.351 388.223 113.021 389.097 113.021C389.459 113.021 388.916 111.608 390.092 111.938C390.907 112.179 391.51 112.63 391.389 113.532C391.238 114.464 390.485 114.765 389.942 114.915Z" fill="#3E2723"/>
<path d="M407.825 155.415C406.74 155.685 406.016 155.144 405.986 154.182C405.955 153.46 406.74 153.039 407.494 153.13C408.338 153.22 409.303 153.19 409.243 154.573C409.213 155.866 408.368 155.325 407.825 155.415Z" fill="#3E2723"/>
<path d="M396.154 184.369C395.34 184.399 394.556 184.309 394.707 183.016C394.827 182.024 395.31 181.663 396.275 181.603C397.24 181.573 397.602 182.054 397.421 182.896C397.3 183.527 397.722 184.7 396.154 184.369Z" fill="#3E2723"/>
<path d="M414.551 147.357C413.495 147.447 413.073 146.846 413.163 145.914C413.224 145.012 413.797 144.651 414.731 144.621C415.697 144.591 416.058 145.282 415.998 145.914C415.938 146.575 415.697 147.537 414.551 147.357Z" fill="#3E2723"/>
<path d="M418.23 163.593C417.174 163.623 416.842 162.841 416.812 162.059C416.752 161.007 417.657 160.827 418.501 160.827C419.768 160.827 419.527 161.939 419.587 162.601C419.647 163.352 418.984 163.683 418.23 163.593Z" fill="#3E2723"/>
<path d="M419.527 167.411C419.195 168.464 418.441 168.794 417.596 168.915C416.752 169.035 416.45 168.464 416.45 167.712C416.45 166.569 417.265 166.329 418.169 166.118C419.527 165.788 418.833 167.231 419.527 167.411Z" fill="#3E2723"/>
<path d="M461.054 175.229C461.024 175.469 461.265 176.221 460.089 176.221C459.064 176.221 458.43 175.92 458.37 174.868C458.31 173.816 459.124 173.665 459.938 173.515C461.175 173.274 461.054 174.056 461.054 175.229Z" fill="#3E2723"/>
<path d="M424.593 178.536C424.714 179.348 424.442 179.829 423.387 179.829C422.392 179.829 421.698 179.408 421.939 178.476C422.12 177.844 422.814 177.183 423.447 176.882C423.99 176.642 424.593 177.484 424.593 178.536Z" fill="#3E2723"/>
<path d="M403.452 183.407C402.517 183.497 401.944 183.226 401.975 182.204C402.005 181.182 402.729 180.821 403.543 180.761C404.448 180.701 404.9 181.513 404.9 182.204C404.9 182.956 404.387 183.617 403.452 183.407Z" fill="#3E2723"/>
<path d="M407.976 118.463C406.8 118.703 407.011 117.681 406.951 117.05C406.89 116.298 407.192 115.546 408.066 115.516C408.851 115.486 409.635 115.877 409.544 116.809C409.514 117.681 409.243 118.523 407.976 118.463Z" fill="#3E2723"/>
<path d="M411.685 189.751C411.806 190.743 411.022 190.863 410.449 190.863C409.635 190.893 409.092 190.472 409.182 189.48C409.243 188.578 409.454 187.947 410.539 187.917C411.957 187.947 411.474 189.059 411.685 189.751Z" fill="#3E2723"/>
<path d="M488.95 206.197C488.799 206.979 488.528 207.701 487.502 207.761C486.598 207.791 486.206 207.19 486.176 206.498C486.145 205.927 486.055 205.025 487.171 205.055C488.015 205.085 488.769 205.145 488.95 206.197Z" fill="#3E2723"/>
<path d="M404.297 115.757C405.262 115.576 405.714 115.997 405.533 116.959C405.352 118.012 404.327 118.162 403.603 118.312C402.608 118.553 402.668 117.44 402.638 116.899C402.578 115.847 403.422 115.697 404.297 115.757Z" fill="#3E2723"/>
<path d="M417.385 188.428C417.325 189.39 417.054 189.991 416.179 190.021C415.214 190.052 414.882 189.36 414.852 188.548C414.852 187.706 415.274 187.075 416.149 187.045C417.144 187.015 417.235 187.857 417.385 188.428Z" fill="#3E2723"/>
<path d="M389.339 100.723C388.856 101.265 388.675 102.137 387.951 102.197C386.775 102.287 386.564 101.174 386.413 100.363C386.293 99.6109 386.956 98.8593 387.589 98.9495C388.434 99.0397 388.675 100.122 389.339 100.723Z" fill="#3E2723"/>
<path d="M465.065 175.289C464.341 175.409 463.768 175.048 463.859 174.297C463.949 173.244 465.005 173.094 465.759 172.974C466.241 172.883 467.176 173.244 467.327 173.635C467.568 174.297 466.211 175.289 465.065 175.289Z" fill="#3E2723"/>
<path d="M410.087 171.801C410.238 172.733 410.057 173.244 409.062 173.244C407.825 173.244 407.494 172.643 407.433 171.53C407.373 170.388 408.368 170.628 408.76 170.659C409.363 170.689 410.57 170.508 410.087 171.801Z" fill="#3E2723"/>
<path d="M420.793 157.249C419.346 157.249 418.803 156.617 419.134 155.415C419.165 155.264 419.195 155.084 419.315 155.024C419.949 154.603 420.793 155.475 421.426 154.753C422.12 155.355 422.12 156.136 421.849 156.918C421.638 157.549 421.065 157.068 420.793 157.249Z" fill="#3E2723"/>
<path d="M422.271 193.118C422.542 192.457 422.422 191.495 423.598 191.525C424.623 191.555 424.774 192.276 424.895 192.998C425.045 194.02 424.291 194.411 423.477 194.501C422.482 194.622 422.452 193.78 422.271 193.118Z" fill="#3E2723"/>
<path d="M421.366 143.719C421.065 144.32 421.487 145.463 420.341 145.493C418.803 145.553 419.195 144.08 418.923 143.298C418.712 142.636 419.496 142.426 420.039 142.456C420.733 142.546 421.457 142.727 421.366 143.719Z" fill="#3E2723"/>
<path d="M382.975 104.933C382.04 105.143 381.497 104.271 381.588 103.7C381.678 103.099 382.161 102.227 383.156 102.197C384.061 102.167 384.513 102.888 384.513 103.459C384.543 104.271 384.091 105.053 382.975 104.933Z" fill="#3E2723"/>
<path d="M399.924 159.323C399.773 159.985 399.291 160.737 398.748 160.526C398.145 160.286 397.149 160.105 397.149 158.993C397.149 158.061 397.813 157.61 398.446 157.64C399.26 157.7 399.773 158.391 399.924 159.323Z" fill="#3E2723"/>
<path d="M484.064 187.526C484.999 187.706 485.15 188.608 485.12 189.27C485.09 189.811 484.849 190.803 483.883 190.623C483.129 190.472 482.556 189.691 482.587 189.089C482.647 188.488 482.677 187.225 484.064 187.526Z" fill="#3E2723"/>
<path d="M481.983 197.839C481.501 197.839 481.018 197.959 480.958 197.147C480.898 196.396 480.717 195.554 481.531 195.193C482.104 194.922 482.858 194.742 483.461 195.343C483.823 195.674 483.431 195.674 483.28 195.794C483.009 196.005 482.677 196.185 482.979 196.636C483.763 197.929 482.798 197.839 481.983 197.839Z" fill="#3E2723"/>
<path d="M475.53 200.455C475.349 199.583 476.073 199.192 476.826 199.132C477.43 199.102 478.455 199.703 478.184 200.094C477.761 200.725 478.184 202.018 476.887 202.018C475.922 202.048 475.56 201.477 475.53 200.455Z" fill="#3E2723"/>
<path d="M481.049 203.251C482.074 203.04 482.104 203.942 482.104 204.514C482.104 205.355 481.591 205.987 480.596 205.927C479.872 205.897 479.42 205.536 479.48 204.814C479.571 204.002 479.812 203.191 481.049 203.251Z" fill="#3E2723"/>
<path d="M413.917 164.074C413.887 165.126 413.103 165.307 412.409 165.337C411.655 165.367 410.931 164.615 411.112 164.074C411.324 163.473 411.806 162.661 412.862 162.691C414.068 162.661 413.585 163.653 413.917 164.074Z" fill="#3E2723"/>
<path d="M457.435 170.779C456.53 170.809 456.349 170.508 456.741 169.817C456.952 169.426 457.103 169.005 457.345 168.644C457.586 168.223 457.375 167.141 458.34 167.712C459.124 168.133 459.456 169.095 459.064 169.877C458.792 170.328 458.219 171.019 457.435 170.779Z" fill="#3E2723"/>
<path d="M417.385 139.57C417.385 138.367 418.019 137.705 418.773 137.585C419.134 137.525 419.949 138.397 420.039 138.938C420.13 139.72 419.617 140.592 418.712 140.652C418.049 140.682 417.596 140.021 417.385 139.57Z" fill="#3E2723"/>
<path d="M420.371 188.338C420.431 187.225 420.703 186.504 421.577 186.444C422.693 186.353 422.723 187.255 422.784 188.067C422.844 189.059 421.999 189.33 421.366 189.39C420.703 189.42 420.28 188.789 420.371 188.338Z" fill="#3E2723"/>
<path d="M423.296 168.043C422.512 168.043 421.728 168.163 421.758 166.99C421.819 165.728 422.844 166.028 423.507 165.908C424.201 165.758 424.563 166.209 424.593 166.96C424.593 167.922 424.08 168.163 423.296 168.043Z" fill="#3E2723"/>
<path d="M407.463 177.333C408.308 177.574 408.609 178.145 408.579 178.807C408.519 179.679 407.976 180.37 407.071 180.34C406.257 180.31 406.136 179.528 406.136 178.807C406.167 177.844 406.951 177.724 407.463 177.333Z" fill="#3E2723"/>
<path d="M388.404 124.476C388.373 124.987 388.645 125.679 387.981 125.919C387.288 126.16 386.594 125.769 385.9 125.649C385.84 125.649 385.75 125.528 385.719 125.438C385.689 125.168 385.599 124.777 385.991 124.717C387.016 124.566 386.534 122.612 387.951 123.063C388.645 123.273 388.343 123.965 388.404 124.476Z" fill="#3E2723"/>
<path d="M474.173 197.087C474.082 197.929 473.479 198.35 472.514 198.44C471.82 198.5 471.549 198.049 471.368 197.508C471.308 197.328 473.087 195.584 473.328 195.554C473.66 195.524 474.142 196.335 474.173 197.087Z" fill="#3E2723"/>
<path d="M487.201 195.133C486.809 195.073 486.296 195.133 485.964 194.652C485.874 194.501 485.814 194.261 485.874 194.111C486.025 193.84 486.175 194.08 486.326 194.171C486.929 194.531 487.11 193.99 486.929 193.69C486.658 193.239 486.025 192.818 486.748 192.487C487.171 192.276 487.925 192.126 488.377 192.968C488.739 193.66 489.04 194.111 488.347 194.742C488.015 195.103 487.683 195.133 487.201 195.133Z" fill="#3E2723"/>
<path d="M474.625 161.879C474.716 162.841 474.474 163.533 473.389 163.563C472.816 163.563 472.212 163.082 472.484 162.721C472.966 162.029 472.363 160.706 473.6 160.556C474.535 160.436 474.746 161.127 474.625 161.879Z" fill="#3E2723"/>
<path d="M473.992 174.868C474.474 174.086 475.258 174.387 475.801 174.146C476.223 173.966 476.736 174.597 476.947 175.138C477.128 175.65 477.098 176.101 476.585 176.461C476.103 176.792 475.56 176.882 475.017 176.732C474.746 176.672 474.715 176.431 474.866 176.131C475.198 175.379 474.866 174.928 473.992 174.868Z" fill="#3E2723"/>
<path d="M466.784 179.709C467.297 179.919 468.081 179.588 468.262 180.4C468.412 181.122 468.02 181.573 467.357 181.873C466.874 182.084 466.603 182.896 465.909 182.415C465.457 182.114 465.547 181.272 465.668 181.242C466.362 180.941 465.728 179.648 466.784 179.709Z" fill="#3E2723"/>
<path d="M417.717 183.407C418.501 183.557 418.803 184.249 418.923 184.88C419.074 185.722 418.29 186.023 417.687 186.113C416.993 186.203 416.511 185.842 416.45 185C416.36 184.008 416.903 183.677 417.717 183.407Z" fill="#3E2723"/>
<path d="M463.316 178.656C463.165 179.498 462.562 179.949 461.748 180.099C460.843 180.25 460.602 179.498 460.541 178.897C460.481 178.085 461.054 177.694 461.868 177.664C462.592 177.634 463.165 177.784 463.316 178.656Z" fill="#3E2723"/>
<path d="M408.247 167.772C407.373 167.802 407.071 167.231 407.162 166.63C407.252 165.878 407.614 165.247 408.64 165.367C409.514 165.487 409.665 166.149 409.665 166.75C409.635 167.622 409.001 167.892 408.247 167.772Z" fill="#3E2723"/>
<path d="M403.241 160.286C403.543 159.804 404.508 159.323 403.211 159.323C402.91 159.323 402.879 159.263 402.91 159.083C402.94 158.782 402.729 158.391 403.181 158.181C403.844 157.91 404.478 157.519 405.202 157.94C405.654 158.211 405.624 158.692 405.594 159.143C405.503 160.045 404.779 160.135 404.116 160.286C403.875 160.316 403.633 160.286 403.241 160.286Z" fill="#3E2723"/>
<path d="M416.45 157.098C416.541 157.85 416.39 158.391 415.485 158.391C414.611 158.391 414.158 157.67 414.128 157.068C414.068 156.347 414.762 155.836 415.516 155.806C416.39 155.715 416.541 156.377 416.45 157.098Z" fill="#3E2723"/>
<path d="M389.519 178.235C390.243 177.604 391.027 177.424 391.691 177.905C392.294 178.326 392.505 179.137 392.294 179.919C392.143 180.52 391.872 180.821 391.329 180.19C390.756 179.528 390.123 178.897 389.519 178.235Z" fill="#3E2723"/>
<path d="M412.922 176.522C413.344 176.973 413.495 175.77 413.857 176.491C414.068 176.882 413.917 177.424 413.585 177.544C412.952 177.814 412.289 177.484 411.806 177.063C411.354 176.672 411.022 176.01 411.474 175.469C411.776 175.138 412.047 174.357 412.892 174.898C413.947 175.559 412.892 175.98 412.922 176.522Z" fill="#3E2723"/>
<path d="M425.045 161.849C425.226 162.661 424.774 162.691 424.292 162.691C423.357 162.691 422.904 162.029 422.844 161.308C422.784 160.556 423.387 159.985 424.171 160.015C425.588 160.045 424.563 161.398 425.045 161.849Z" fill="#3E2723"/>
<path d="M378.753 101.956C378.723 102.437 379.085 103.219 378.059 103.129C377.486 103.099 376.702 103.369 376.642 102.317C376.582 101.295 377.215 100.603 377.999 100.483C379.025 100.333 378.572 101.355 378.753 101.956Z" fill="#3E2723"/>
<path d="M413.706 152.649C413.887 153.49 413.616 154.002 412.862 153.911C412.108 153.821 411.625 153.37 411.625 152.528C411.625 151.596 412.228 151.326 412.982 151.266C414.309 151.175 413.404 152.318 413.706 152.649Z" fill="#3E2723"/>
<path d="M406.498 185.271C406.378 184.309 406.951 183.978 407.735 184.038C408.278 184.068 409.182 184.249 409.092 184.82C408.971 185.421 408.519 186.263 407.765 186.413C406.981 186.534 406.348 186.203 406.498 185.271Z" fill="#3E2723"/>
<path d="M414.038 181.903C413.917 182.715 413.435 183.106 412.651 183.136C411.866 183.166 411.505 182.565 411.595 182.054C411.716 181.392 412.017 180.641 413.043 180.701C413.857 180.761 413.947 181.302 414.038 181.903Z" fill="#3E2723"/>
<path d="M405.925 107.218C405.865 107.699 405.443 107.939 404.99 107.909C404.086 107.819 403.633 107.158 403.573 106.316C403.513 105.684 404.056 105.354 404.629 105.263C404.84 105.233 405.955 106.887 405.925 107.218Z" fill="#3E2723"/>
<path d="M412.862 121.109C411.535 121.048 410.932 120.177 411.384 119.214C411.535 118.884 411.836 118.673 412.168 118.583C412.651 118.463 412.651 118.944 412.862 119.214C413.103 119.515 412.771 120.026 413.224 120.267C413.525 120.417 413.766 120.658 413.616 120.958C413.435 121.409 413.012 121.109 412.862 121.109Z" fill="#3E2723"/>
<path d="M416.481 173.635C416.45 173.064 416.541 172.463 417.476 172.523C418.139 172.583 418.803 172.883 418.531 173.485C418.32 173.966 418.773 175.018 417.747 174.898C417.174 174.868 416.3 174.778 416.481 173.635Z" fill="#3E2723"/>
<path d="M468.804 186.113C468.382 186.985 467.568 187.376 466.724 187.616C466.181 187.766 466.211 187.135 466.241 186.744C466.331 185.662 467.146 185.632 467.96 185.542C468.412 185.481 468.714 185.602 468.804 186.113Z" fill="#3E2723"/>
<path d="M383.669 98.1076C383.458 98.8893 383.156 99.4907 382.282 99.5207C381.648 99.5508 380.985 99.2501 381.105 98.6789C381.286 97.8671 382.282 97.9873 382.945 97.7167C383.247 97.5965 383.639 97.6867 383.669 98.1076Z" fill="#3E2723"/>
<path d="M408.308 109.773C409.092 110.104 409.363 110.916 409.876 111.457C410.057 111.638 409.212 112.149 408.64 112.149C407.674 112.179 407.705 111.457 407.705 110.796C407.705 110.345 407.825 109.954 408.308 109.773Z" fill="#3E2723"/>
<path d="M398.386 141.825C398.024 142.606 397.33 142.877 396.787 143.268C396.486 143.478 396.064 144.05 395.732 143.268C395.521 142.757 395.521 142.155 396.124 142.035C396.818 141.855 397.511 141.374 398.386 141.825Z" fill="#3E2723"/>
<path d="M476.495 167.862C475.711 167.321 475.138 166.479 474.625 167.742C474.414 168.253 473.931 168.193 473.66 167.983C473.268 167.682 473.479 166.81 473.569 166.81C474.323 166.87 474.866 166.149 475.56 166.269C476.344 166.389 476.344 167.051 476.495 167.862Z" fill="#3E2723"/>
<path d="M467.327 199.883C469.528 199.102 470.071 199.462 470.011 201.387C469.197 200.936 468.382 200.485 467.327 199.883Z" fill="#3E2723"/>
<path d="M371.425 109.864C372.45 110.946 372.269 111.698 370.671 112.389C370.822 111.487 370.52 110.525 371.425 109.864Z" fill="#3E2723"/>
<path d="M403.603 134.248C403.573 134.218 403.513 134.218 403.513 134.188C403.121 133.256 403.603 132.624 404.297 132.113C404.568 131.903 405.021 132.233 405.021 132.414C404.93 133.165 404.659 133.857 403.814 134.097C403.754 134.097 403.694 134.188 403.603 134.248Z" fill="#3E2723"/>
<path d="M373.385 128.595C373.355 129.016 373.264 129.407 372.782 129.257C371.937 129.016 371.877 128.144 371.575 127.513C371.455 127.212 371.847 127.152 372.088 127.212C372.872 127.363 373.294 127.844 373.385 128.595Z" fill="#3E2723"/>
<path d="M426.553 187.556C426.372 188.007 426.825 188.759 426.041 188.789C425.106 188.819 425.679 187.827 425.287 187.436C425.709 187.105 425.166 186.143 425.98 186.173C426.976 186.233 426.282 187.135 426.553 187.556Z" fill="#3E2723"/>
<path d="M419.134 150.845C419.104 150.965 419.074 151.055 419.044 151.055C418.773 151.085 418.501 151.085 418.26 151.085C418.471 150.093 416.873 150.183 417.114 149.341C417.234 148.92 418.109 149.011 418.441 149.281C418.893 149.642 418.712 150.424 419.134 150.845Z" fill="#3E2723"/>
<path d="M490.096 186.323C489.885 186.714 490.518 187.466 489.764 187.526C489.191 187.586 488.799 186.864 488.92 186.383C489.01 185.962 489.071 185.121 489.794 185.211C490.428 185.271 490.036 185.902 490.096 186.323Z" fill="#3E2723"/>
<path d="M457.194 180.16C458.521 180.671 458.702 181.362 457.978 183.046C457.495 182.144 457.495 181.182 457.194 180.16Z" fill="#3E2723"/>
<path d="M461.989 163.473C461.476 163.773 462.17 164.826 461.416 164.735C460.602 164.645 461.205 163.653 460.873 163.112C460.602 162.661 461.476 162.51 461.567 162.541C462.079 162.631 461.959 163.112 461.989 163.473Z" fill="#3E2723"/>
<path d="M384.543 174.236C386.112 173.966 386.685 174.507 387.077 175.95C386.142 175.319 385.508 174.898 384.543 174.236Z" fill="#3E2723"/>
<path d="M377.758 138.217C377.577 137.976 377.366 137.766 377.275 137.495C377.125 137.074 376.461 136.803 376.823 136.232C376.883 136.142 377.215 136.142 377.366 136.232C377.879 136.563 378.331 136.984 378.09 137.675C378.029 137.886 377.878 138.036 377.758 138.217Z" fill="#3E2723"/>
</g>
<defs>
<clipPath id="clip0">
<rect width="573" height="266" fill="white"/>
</clipPath>
</defs>
</svg>
