<svg width="108" height="117" viewBox="0 0 108 117" fill="none" xmlns="http://www.w3.org/2000/svg">
<path d="M3.904 8.6H12.768C15.0933 8.6 17.152 9.08 18.944 10.04C20.7573 11 22.1653 12.3333 23.168 14.04C24.1707 15.7253 24.672 17.6453 24.672 19.8C24.672 21.9547 24.1707 23.8853 23.168 25.592C22.1653 27.2773 20.7573 28.6 18.944 29.56C17.152 30.52 15.0933 31 12.768 31H3.904V8.6ZM12.64 29.528C14.7093 29.528 16.5333 29.1227 18.112 28.312C19.6907 27.48 20.9067 26.328 21.76 24.856C22.6133 23.384 23.04 21.6987 23.04 19.8C23.04 17.9013 22.6133 16.216 21.76 14.744C20.9067 13.272 19.6907 12.1307 18.112 11.32C16.5333 10.488 14.7093 10.072 12.64 10.072H5.536V29.528H12.64ZM8.192 49.072H0.128V47.6H17.888V49.072H9.824V70H8.192V49.072ZM40.1753 47.6V70H38.5433V59.344H23.5673V70H21.9353V47.6H23.5673V57.904H38.5433V47.6H40.1753ZM63.4538 68.528V70H47.9978V47.6H62.9738V49.072H49.6298V57.904H61.5658V59.344H49.6298V68.528H63.4538ZM33.856 86.6L26.272 109H24.544L17.6 88.904L10.624 109H8.896L1.28 86.6H3.008L9.824 106.76L16.832 86.6H18.4L25.376 106.792L32.256 86.6H33.856ZM81.3935 109L76.0495 101.512C75.2602 101.619 74.5348 101.672 73.8735 101.672H67.4735V109H65.8415V86.6H73.8735C76.6895 86.6 78.8975 87.272 80.4975 88.616C82.0975 89.9387 82.8975 91.784 82.8975 94.152C82.8975 95.9227 82.4388 97.416 81.5215 98.632C80.6255 99.8267 79.3348 100.669 77.6495 101.16L83.2495 109H81.3935ZM73.8735 100.232C76.2628 100.232 78.0868 99.7093 79.3455 98.664C80.6042 97.5973 81.2335 96.0933 81.2335 94.152C81.2335 92.2107 80.6042 90.7173 79.3455 89.672C78.0868 88.6053 76.2628 88.072 73.8735 88.072H67.4735V100.232H73.8735ZM95.5288 97.96L90.5048 103.112V109H88.8728V86.6H90.5048V101L104.489 86.6H106.473L96.6168 96.776L107.145 109H105.161L95.5288 97.96Z" fill="#333333"/>
<path d="M48.533 109.16C46.3357 109.16 44.3517 108.669 42.581 107.688C40.8103 106.685 39.413 105.32 38.389 103.592C37.3863 101.864 36.885 99.9333 36.885 97.8C36.885 95.6667 37.3863 93.736 38.389 92.008C39.413 90.28 40.8103 88.9253 42.581 87.944C44.3517 86.9413 46.3357 86.44 48.533 86.44C50.7303 86.44 52.7143 86.9307 54.485 87.912C56.2557 88.8933 57.6423 90.248 58.645 91.976C59.669 93.704 60.181 95.6453 60.181 97.8C60.181 99.9547 59.669 101.896 58.645 103.624C57.6423 105.352 56.2557 106.707 54.485 107.688C52.7143 108.669 50.7303 109.16 48.533 109.16ZM48.533 107.656C50.4103 107.656 52.1063 107.229 53.621 106.376C55.1357 105.523 56.3303 104.349 57.205 102.856C58.0797 101.341 58.517 99.656 58.517 97.8C58.517 95.944 58.0797 94.2693 57.205 92.776C56.3303 91.2613 55.1357 90.0773 53.621 89.224C52.1063 88.3707 50.4103 87.944 48.533 87.944C46.6557 87.944 44.949 88.3707 43.413 89.224C41.8983 90.0773 40.7037 91.2613 39.829 92.776C38.9543 94.2693 38.517 95.944 38.517 97.8C38.517 99.656 38.9543 101.341 39.829 102.856C40.7037 104.349 41.8983 105.523 43.413 106.376C44.949 107.229 46.6557 107.656 48.533 107.656Z" fill="white"/>
<path d="M40 8.375C33.5781 8.375 28.375 13.625 28.375 20C28.375 26.4219 33.5781 31.625 40 31.625C46.375 31.625 51.625 26.4219 51.625 20C51.625 13.625 46.375 8.375 40 8.375ZM40 30.125C34.4219 30.125 29.875 25.625 29.875 20C29.875 14.4688 34.375 9.875 40 9.875C45.5312 9.875 50.125 14.4219 50.125 20C50.125 25.5781 45.5781 30.125 40 30.125ZM46.6094 17.2812C46.8438 17.0469 46.8438 16.6719 46.6094 16.4844L46.2344 16.0625C46 15.8281 45.625 15.8281 45.4375 16.0625L37.75 23.6562L34.5156 20.4219C34.3281 20.1875 33.9531 20.1875 33.7188 20.4219L33.3438 20.7969C33.1094 21.0312 33.1094 21.3594 33.3438 21.5938L37.375 25.6719C37.5625 25.8594 37.9375 25.8594 38.1719 25.6719L46.6094 17.2812Z" fill="#333333"/>
<path d="M48 86.375C41.5781 86.375 36.375 91.625 36.375 98C36.375 104.422 41.5781 109.625 48 109.625C54.375 109.625 59.625 104.422 59.625 98C59.625 91.625 54.375 86.375 48 86.375ZM48 108.125C42.4219 108.125 37.875 103.625 37.875 98C37.875 92.4688 42.375 87.875 48 87.875C53.5312 87.875 58.125 92.4219 58.125 98C58.125 103.578 53.5781 108.125 48 108.125ZM54.6094 95.2812C54.8438 95.0469 54.8438 94.6719 54.6094 94.4844L54.2344 94.0625C54 93.8281 53.625 93.8281 53.4375 94.0625L45.75 101.656L42.5156 98.4219C42.3281 98.1875 41.9531 98.1875 41.7188 98.4219L41.3438 98.7969C41.1094 99.0312 41.1094 99.3594 41.3438 99.5938L45.375 103.672C45.5625 103.859 45.9375 103.859 46.1719 103.672L54.6094 95.2812Z" fill="#333333"/>
</svg>
